<?xml version="1.0" encoding="UTF-8" standalone="no"?>
<!-- Created with Inkscape (http://www.inkscape.org/) -->

<svg
   width="184.99991mm"
   height="184.99998mm"
   viewBox="0 0 184.99992 184.99999"
   version="1.1"
   id="svg5"
   inkscape:version="1.4.2 (ebf0e940d0, 2025-05-08)"
   sodipodi:docname="main-logo-center-white.svg"
   inkscape:export-filename="main-logo-center-white.png"
   inkscape:export-xdpi="96.089767"
   inkscape:export-ydpi="96.089767"
   xmlns:inkscape="http://www.inkscape.org/namespaces/inkscape"
   xmlns:sodipodi="http://sodipodi.sourceforge.net/DTD/sodipodi-0.dtd"
   xmlns="http://www.w3.org/2000/svg"
   xmlns:svg="http://www.w3.org/2000/svg">
  <sodipodi:namedview
     id="namedview7"
     pagecolor="#ffffff"
     bordercolor="#666666"
     borderopacity="1.0"
     inkscape:pageshadow="2"
     inkscape:pageopacity="0.0"
     inkscape:pagecheckerboard="0"
     inkscape:document-units="mm"
     showgrid="false"
     inkscape:zoom="0.95934977"
     inkscape:cx="218.37708"
     inkscape:cy="376.29654"
     inkscape:window-width="1920"
     inkscape:window-height="1005"
     inkscape:window-x="0"
     inkscape:window-y="0"
     inkscape:window-maximized="1"
     inkscape:current-layer="layer2"
     inkscape:showpageshadow="2"
     inkscape:deskcolor="#d1d1d1" />
  <defs
     id="defs2" />
  <g
     inkscape:groupmode="layer"
     id="layer2"
     inkscape:label="logo"
     style="display:inline"
     transform="translate(-10.146138,-12.218692)">
    <path
       id="path1"
       style="display:inline;fill:#ffffff;fill-opacity:1;stroke:#5bb89f;stroke-width:0;stroke-miterlimit:4;stroke-dasharray:none;stroke-opacity:1"
       d="m 102.82842,16.592787 c -6.180223,-0.0063 -8.142016,0.118612 -12.896383,0.821937 C 66.0902,20.941702 44.918368,33.891316 30.852163,53.550354 22.596341,65.088756 17.024555,79.313733 15.227435,93.440309 c -2.437853,19.163191 1.46503,38.625941 11.104226,55.375821 1.462426,2.54122 4.795493,7.49796 6.582253,9.78839 5.962558,7.64342 12.997839,14.20856 20.8187,19.42723 12.591713,8.40213 26.811193,13.33899 42.158375,14.63734 2.985835,0.25259 13.244231,0.10369 16.098471,-0.23379 10.96126,-1.29596 20.66319,-4.15213 30.06239,-8.85033 17.30978,-8.65229 31.12921,-22.56297 39.66766,-39.92982 4.69876,-9.55712 7.37901,-18.75554 8.66023,-29.7206 0.39462,-3.37726 0.45138,-14.306097 0.0915,-17.618451 -1.23279,-11.346303 -3.9343,-20.790073 -8.7567,-30.610451 -4.75733,-9.687937 -10.82728,-17.857294 -18.93893,-25.489351 -12.57964,-11.83586 -28.65431,-19.752556 -45.8052,-22.558438 -5.4362,-0.889365 -7.68123,-1.058437 -14.142,-1.065072 z"
       inkscape:label="path1" />
    <path
       id="path28241"
       style="display:inline;fill:none;fill-opacity:1;stroke:#5bb89f;stroke-width:8.74783;stroke-miterlimit:4;stroke-dasharray:none;stroke-opacity:1"
       d="m 102.82842,16.592787 c -6.180223,-0.0063 -8.142016,0.118612 -12.896383,0.821937 C 66.0902,20.941702 44.918368,33.891316 30.852163,53.550354 22.596341,65.088756 17.024555,79.313733 15.227435,93.440309 c -2.437853,19.163191 1.46503,38.625941 11.104226,55.375821 1.462426,2.54122 4.795493,7.49796 6.582253,9.78839 5.962558,7.64342 12.997839,14.20856 20.8187,19.42723 12.591713,8.40213 26.811193,13.33899 42.158375,14.63734 2.985835,0.25259 13.244231,0.10369 16.098471,-0.23379 10.96126,-1.29596 20.66319,-4.15213 30.06239,-8.85033 17.30978,-8.65229 31.12921,-22.56297 39.66766,-39.92982 4.69876,-9.55712 7.37901,-18.75554 8.66023,-29.7206 0.39462,-3.37726 0.45138,-14.306097 0.0915,-17.618451 -1.23279,-11.346303 -3.9343,-20.790073 -8.7567,-30.610451 -4.75733,-9.687937 -10.82728,-17.857294 -18.93893,-25.489351 -12.57964,-11.83586 -28.65431,-19.752556 -45.8052,-22.558438 -5.4362,-0.889365 -7.68123,-1.058437 -14.142,-1.065072 z" />
    <path
       style="display:inline;fill:#09282b;fill-opacity:1;stroke:none;stroke-width:6.46817;stroke-miterlimit:4;stroke-dasharray:none;stroke-opacity:1"
       d="M 94.912005,183.9333 C 74.653146,181.74606 56.30401,172.33873 43.172447,157.4072 39.766569,153.53447 36.478933,149.00095 33.932764,144.66604 29.598302,137.28653 26.084252,127.83184 24.519377,119.33895 21.347959,102.12702 23.679998,85.213641 31.408516,69.374683 42.112,47.438773 62.89276,31.460825 87.127819,26.533118 c 5.843368,-1.188129 7.342953,-1.314426 15.606731,-1.314426 7.00116,0 7.8732,0.03544 10.48482,0.42609 11.52619,1.724124 21.03289,5.081871 30.58629,10.803032 5.68056,3.401865 9.76657,6.639597 15.0952,11.961338 6.56901,6.560522 10.89377,12.504151 14.85427,20.414594 3.68646,7.363056 5.9457,14.133053 7.36508,22.069993 0.95472,5.338648 1.0969,7.470804 1.00009,14.998131 -0.0955,7.42415 -0.32241,9.69444 -1.52705,15.2776 -2.70995,12.55979 -8.43912,24.38402 -16.63353,34.32935 -2.53108,3.07191 -7.88277,8.38811 -10.84425,10.77236 -11.46982,9.23415 -24.08148,14.84975 -38.47417,17.13139 -5.13834,0.81457 -14.714349,1.07217 -19.729295,0.53073 z"
       id="path51887" />
  </g>
  <g
     inkscape:groupmode="layer"
     id="layer3"
     inkscape:label="Text"
     style="display:inline"
     transform="translate(-10.146138,-12.218692)">
    <g
       id="g156140"
       transform="matrix(1.0452714,0,0,1.0854041,-7.5249995,-11.671181)">
      <path
         style="display:inline;fill:#ffffff;fill-opacity:0.998577;stroke:none;stroke-width:0.264583px;stroke-linecap:butt;stroke-linejoin:miter;stroke-opacity:1"
         d="m 34.95127,117.58505 9.087604,-2.66729 c 1.148818,4.57211 2.923931,7.0511 6.004678,8.44368 4.120028,1.86238 9.567545,1.15592 13.07865,-1.70048 2.194305,-1.78514 3.860966,-5.70493 3.669378,-9.01386 l 0.0049,-30.4431 h 9.798456 l -0.01206,30.25716 c -0.0032,8.12765 -3.657761,14.15912 -8.69612,17.66808 -5.173457,3.60305 -14.103261,4.4168 -20.077998,2.39703 -7.400803,-2.50186 -11.551496,-7.8498 -12.857508,-14.94122 z"
         id="path52381"
         sodipodi:nodetypes="ccsscccssscc" />
      <path
         style="fill:#ffffff;fill-opacity:0.998577;stroke:none;stroke-width:0.264583px;stroke-linecap:butt;stroke-linejoin:miter;stroke-opacity:1"
         d="M 80.375265,82.204 H 124.86682 V 91.5 h -17.49364 v 41.172 l -9.737624,-4.4e-4 V 91.5 H 80.390179 Z"
         id="path153604"
         sodipodi:nodetypes="ccccccccc" />
      <path
         style="fill:#ffffff;fill-opacity:0.998577;stroke:none;stroke-width:0.264583px;stroke-linecap:butt;stroke-linejoin:miter;stroke-opacity:1"
         d="m 115.21974,132.672 22.60102,-50.468 h 10.44613 L 171.046,132.672 H 160.21715 L 155.78,122.909 h -18.06256 l 3.29577,-9.01 h 10.99937 L 142.97429,93.573367 125.94385,132.672 Z"
         id="path155086"
         sodipodi:nodetypes="cccccccccccc" />
    </g>
  </g>
</svg>
